# xmcd
#
# Track frame offsets:
#	150
#	12172
#	38097
#	53506
#	71225
#	91677
#	111480
#	127810
#	147277
#	161047
#	177338
#	193833
#
# Disc length: 2803 seconds
# Revision: 0
# Processed by: cddbd v1.5.2PL0 Copyright (c) Steve Scherf et al.
# Submitted via: dBpowerAMP V12.0
#
DISCID=a10af10c
DTITLE=Lorrie Morgan - Letting Go… Slow
DYEAR=2016
DGENRE=Country
TTITLE0=Strange
TTITLE1=Ode To Billie Joe
TTITLE2=Is It Raining At Your House
TTITLE3=Something About Trains
TTITLE4=I've Done Enough Dying Today
TTITLE5=Lay Lady Lay
TTITLE6=Slow
TTITLE7=Spilt Milk
TTITLE8=Jesus and Hairspray
TTITLE9=Lonely Whiskey
TTITLE10=What I'd Say
TTITLE11=How Does It Feel
EXTD=
EXTT0=
EXTT1=
EXTT2=
EXTT3=
EXTT4=
EXTT5=
EXTT6=
EXTT7=
EXTT8=
EXTT9=
EXTT10=
EXTT11=
PLAYORDER=
